<svg id="visual" viewBox="0 0 900 600" width="900" height="600" xmlns="http://www.w3.org/2000/svg" xmlns:xlink="http://www.w3.org/1999/xlink" version="1.1"><g><g transform="translate(797 443)"><path d="M0 -97.5L84.4 -48.7L84.4 48.7L0 97.5L-84.4 48.7L-84.4 -48.7Z" fill="none" stroke="#2c6030" stroke-width="6"></path></g><g transform="translate(665 142)"><path d="M0 -93L80.5 -46.5L80.5 46.5L0 93L-80.5 46.5L-80.5 -46.5Z" fill="none" stroke="#2c6030" stroke-width="6"></path></g><g transform="translate(172 348)"><path d="M0 -53L45.9 -26.5L45.9 26.5L0 53L-45.9 26.5L-45.9 -26.5Z" stroke="#2c6030" fill="none" stroke-width="6"></path></g><g transform="translate(499 274)"><path d="M0 -58L50.2 -29L50.2 29L0 58L-50.2 29L-50.2 -29Z" stroke="#2c6030" fill="none" stroke-width="6"></path></g><g transform="translate(318 199)"><path d="M0 -63L54.6 -31.5L54.6 31.5L0 63L-54.6 31.5L-54.6 -31.5Z" stroke="#2c6030" fill="none" stroke-width="6"></path></g><g transform="translate(375 486)"><path d="M0 -87L75.3 -43.5L75.3 43.5L0 87L-75.3 43.5L-75.3 -43.5Z" stroke="#2c6030" fill="none" stroke-width="6"></path></g><g transform="translate(101 163)"><path d="M0 -64L55.4 -32L55.4 32L0 64L-55.4 32L-55.4 -32Z" stroke="#2c6030" fill="none" stroke-width="6"></path></g></g></svg>